# xmcd
#
# Track frame offsets: 
#        150
#        14726
#        26516
#        36568
#        47700
#        62915
#        72532
#        84251
#        97397
#        108090
#        117619
#        130040
#
# Disc length: 1895 seconds
#
# Revision: 0
# Processed by: cddbd v1.5.2PL0 Copyright (c) Steve Scherf et al.
# Submitted via: ExactAudioCopy v1.0b1
#
DISCID=af07650c
DTITLE=Blue Sky Boys - Precious Moments
DYEAR=1964
DGENRE=Bluegrass
TTITLE0=Radio Station
TTITLE1=Why Should You Be Troubled and Sad
TTITLE2=Precious Moments
TTITLE3=Why Have You Forsaken Me
TTITLE4=Come to the Saviour Today
TTITLE5=This is the Promise of the Lord
TTITLE6=When I've Gone the Last Mile
TTITLE7=God is Still on the Throne
TTITLE8=ABC Song
TTITLE9=Boat of Life
TTITLE10=Whispering Hope
TTITLE11=Beautiful
EXTD=
EXTT0=
EXTT1=
EXTT2=
EXTT3=
EXTT4=
EXTT5=
EXTT6=
EXTT7=
EXTT8=
EXTT9=
EXTT10=
EXTT11=
PLAYORDER=
